<svg version="1.1" id="Layer_1" xmlns="http://www.w3.org/2000/svg" xmlns:xlink="http://www.w3.org/1999/xlink" x="0px"
	y="0px" width="100%" viewBox="0 0 1024 1024" enable-background="new 0 0 1024 1024" xml:space="preserve">
	<path fill="#0077c5" opacity="1.000000" stroke="none" d="
M491.933136,975.990845 
	C480.784180,969.265381 469.372314,962.933594 458.555573,955.710571 
	C446.185089,947.449951 433.783752,939.066528 422.395294,929.541443 
	C402.039429,912.516235 382.260101,894.785828 362.588715,876.964966 
	C353.257202,868.511292 344.613495,859.281616 335.877045,850.193115 
	C329.471405,843.529297 323.155365,836.743225 317.273834,829.619934 
	C307.317749,817.561890 297.714447,805.211853 288.008728,792.948181 
	C284.048187,787.943726 280.207367,782.844604 276.182068,777.106323 
	C265.793823,760.301880 255.535507,744.179565 245.277222,728.057251 
	C241.879105,722.759949 238.178787,717.629761 235.139404,712.134033 
	C225.913849,695.452759 216.565643,678.819763 208.022736,661.787964 
	C203.235229,652.243225 199.957367,641.942383 195.979065,631.990234 
	C191.988358,622.007202 187.512680,612.189758 184.071487,602.021545 
	C178.391525,585.238220 173.372223,568.231262 168.075470,551.318237 
	C167.482422,549.424561 166.895721,547.528992 166.460495,545.016785 
	C164.657806,536.423523 162.816956,528.416748 160.699554,520.483765 
	C159.452057,515.809998 157.765884,511.253326 156.277008,506.643982 
	C153.079544,491.817749 149.668884,477.033173 146.759430,462.150635 
	C144.815765,452.208282 143.317642,442.158508 142.114426,432.097717 
	C141.020477,422.950500 140.593918,413.723419 139.519577,403.735107 
	C138.556549,394.969757 137.947098,387.000916 137.337646,379.032043 
	C136.910721,376.612488 136.222763,374.206329 136.097855,371.771271 
	C135.010956,350.586029 133.963730,329.398315 133.034622,308.205627 
	C132.562592,297.438690 132.258316,286.661865 132.058640,275.886169 
	C131.849396,264.593323 131.362244,253.291519 133.859283,242.102203 
	C134.361511,239.851669 133.091553,237.263565 133.042770,234.823029 
	C132.641159,214.724274 132.365921,194.623032 131.982895,174.523865 
	C131.850403,167.571365 134.272537,165.560135 140.790390,164.940643 
	C149.109634,164.149902 157.439529,163.266922 165.678345,161.901810 
	C171.797607,160.887863 177.721161,158.707932 183.836029,157.648773 
	C192.533386,156.142288 201.347382,155.321579 210.070816,153.949005 
	C215.734024,153.057953 221.308914,151.620193 226.951523,150.580032 
	C235.612473,148.983459 244.326035,147.661163 252.962219,145.945419 
	C258.428772,144.859375 263.773773,143.175873 269.212341,141.930939 
	C275.395294,140.515610 281.664185,139.462311 287.819763,137.943863 
	C298.109039,135.405731 308.441345,132.958923 318.562256,129.845474 
	C327.949585,126.957687 337.069885,123.208054 346.337921,119.922882 
	C349.377136,118.845596 352.510681,118.034416 356.002228,116.980453 
	C353.972443,112.328285 355.592499,110.916382 360.062805,109.817757 
	C365.544586,108.470528 370.536774,105.240509 375.868927,103.152107 
	C386.791321,98.874229 397.799347,94.814957 409.281189,90.310158 
	C410.666840,89.606888 411.543365,89.259125 412.827057,88.948067 
	C414.813263,88.295273 416.392303,87.605774 417.941742,86.934143 
	C417.912109,86.952003 417.880798,86.890297 418.237183,86.897217 
	C419.959778,86.146187 421.326019,85.388229 422.722809,84.652153 
	C422.753326,84.674026 422.738831,84.747704 423.085693,84.779549 
	C424.687134,84.282059 425.941772,83.752731 427.564880,83.166748 
	C435.284821,79.807404 442.670135,76.576431 449.953644,73.130203 
	C451.143433,72.567245 451.883850,71.054588 452.832001,69.980896 
	C454.657806,69.073517 456.483643,68.166138 458.995605,67.166595 
	C465.810028,64.038277 471.938232,61.002129 478.328827,57.987076 
	C479.049500,57.779793 479.507812,57.551418 480.358307,57.271667 
	C488.049927,53.738132 495.517700,50.562534 502.595673,46.676987 
	C508.277985,43.557636 513.587891,41.239082 519.812622,45.098415 
	C520.957520,45.808247 522.672668,45.598484 524.117065,45.838791 
	C524.109619,45.864391 524.065369,45.894169 524.142029,46.229553 
	C527.159241,48.049934 530.099854,49.534927 533.040405,51.019920 
	C533.040405,51.019917 532.974426,51.025139 533.097961,51.310429 
	C538.496948,54.065285 543.772339,56.534851 549.047791,59.004417 
	C549.047791,59.004414 548.989075,59.013546 549.105225,59.306808 
	C556.224670,62.775043 563.228027,65.950020 570.231323,69.125000 
	C570.231323,69.124992 570.466125,69.170609 570.767029,69.426666 
	C571.403442,69.830307 571.739014,69.977890 572.074524,70.125473 
	C572.074524,70.125465 572.384521,70.198975 572.723755,70.551018 
	C576.089050,72.293266 579.114990,73.683479 582.140991,75.073685 
	C582.140991,75.073692 582.441895,75.113365 582.772522,75.473503 
	C585.089783,76.553703 587.076416,77.273766 589.063049,77.993820 
	C589.063049,77.993820 588.994934,77.995934 589.088135,78.294739 
	C593.286377,80.388458 597.391296,82.183388 601.543030,83.955696 
	C601.589783,83.933083 601.643555,84.021942 601.916260,84.253311 
	C602.629761,84.651291 603.070679,84.817902 603.587524,84.974304 
	C603.663574,84.964096 603.768005,85.076469 604.024536,85.279648 
	C604.692932,85.617966 605.104858,85.753105 605.843262,85.933876 
	C609.385193,87.301727 612.600586,88.623947 615.815979,89.946167 
	C620.218079,91.872467 624.620117,93.798767 629.022217,95.725067 
	C628.923401,96.271332 628.824524,96.817604 628.725708,97.363876 
	C627.070984,97.718796 625.416260,98.073715 622.660095,98.664871 
	C626.115173,99.867867 628.682373,100.730751 631.227844,101.653664 
	C639.965393,104.821663 648.758057,107.850113 657.410217,111.237022 
	C665.996948,114.598297 674.336182,118.607201 682.980408,121.800430 
	C688.898987,123.986809 695.157288,125.250923 701.257874,126.948280 
	C709.287109,129.182251 717.304688,131.458710 725.338074,133.677521 
	C738.877747,137.417175 752.413208,140.954254 766.301819,143.483734 
	C773.699341,144.831024 781.167114,147.038742 788.718018,148.331543 
	C794.680237,149.352310 800.711670,149.976654 806.663452,151.048248 
	C813.666992,152.309219 820.583862,154.066956 827.600281,155.237717 
	C836.310120,156.691040 845.111450,157.596924 853.820190,159.055801 
	C860.278503,160.137695 866.637695,161.798340 873.068970,163.059006 
	C877.072937,163.843872 881.109192,164.577209 885.166199,164.951843 
	C890.969238,165.487717 892.997620,167.441681 892.998535,173.215149 
	C893.000122,183.044174 893.309265,192.885788 892.920227,202.699554 
	C892.154602,222.015289 890.880127,241.310898 890.117310,260.626709 
	C889.984802,263.982880 891.825562,267.386169 891.903320,270.787170 
	C892.144470,281.329834 892.215881,291.888947 891.907288,302.428619 
	C891.467102,317.465057 890.662842,332.491394 889.955322,347.519287 
	C889.347351,360.431946 888.657593,373.340790 888.003174,386.251251 
	C887.660278,393.015961 887.726746,399.832214 886.884827,406.534332 
	C885.219788,419.789093 883.258057,433.015625 881.025330,446.187103 
	C879.317383,456.262726 877.004028,466.235687 874.624390,476.899231 
	C872.188477,487.027283 870.088135,496.510437 867.987854,505.993622 
	C868.049683,507.492706 868.427612,509.061432 868.115601,510.478149 
	C867.071777,515.216980 865.781250,519.901428 864.018677,525.058228 
	C861.590393,532.743652 859.728699,539.977600 857.866943,547.211487 
	C853.835266,560.936829 850.387207,574.868042 845.634827,588.339172 
	C838.536865,608.458923 831.082092,628.493103 822.750244,648.127075 
	C812.659180,671.906311 800.203979,694.555176 786.999207,716.763855 
	C784.103821,721.633362 781.110474,726.444580 777.664917,731.722534 
	C770.851868,742.062256 764.554016,751.973450 758.213013,761.856934 
	C755.100464,766.708435 751.907776,771.508545 748.751343,776.331970 
	C735.162781,795.854431 721.579712,815.370422 704.976685,832.558533 
	C690.968750,847.060059 677.404419,862.002075 663.101257,876.202698 
	C651.964172,887.260071 640.287354,897.824463 628.318176,907.980530 
	C612.969482,921.004089 597.507568,933.971252 581.296875,945.876648 
	C569.154358,954.794373 555.946655,962.337036 542.840942,969.841675 
	C534.080139,974.858459 524.766296,978.967590 515.475830,982.961609 
	C513.093140,983.986023 509.862213,983.037415 506.476654,982.586914 
	C501.265930,980.116028 496.599518,978.053467 491.933136,975.990845 
M536.320984,424.049530 
	C509.863556,421.147522 483.710907,422.993530 458.104126,430.149872 
	C417.050629,441.623138 382.641846,463.731720 355.094849,496.306000 
	C328.842834,527.349060 312.281189,562.978455 308.184418,603.456665 
	C305.945923,625.574585 306.456329,648.001770 306.369873,670.291931 
	C306.332764,679.865906 309.542480,688.998962 314.611847,697.204407 
	C327.437805,717.965149 345.983490,728.636780 370.574585,728.627197 
	C465.535919,728.590088 560.497253,728.614258 655.458557,728.598572 
	C657.954895,728.598145 660.455811,728.465515 662.946960,728.288147 
	C691.161011,726.279358 716.762939,702.319336 718.883606,674.055176 
	C720.938965,646.662903 721.524048,619.076843 716.121155,591.904724 
	C703.145020,526.646423 666.891724,478.356720 608.717224,446.429108 
	C586.423889,434.193939 562.357300,427.366180 536.320984,424.049530 
M499.522064,408.056335 
	C514.428406,410.117310 529.179382,408.855835 543.568176,404.884521 
	C604.414490,388.090912 641.181702,329.993164 629.851562,267.847717 
	C620.454651,216.305939 577.935547,176.086884 524.051697,171.353348 
	C482.462006,167.699829 447.123627,182.199173 420.845337,214.900482 
	C391.762115,251.092285 385.445587,292.056702 403.088409,334.969177 
	C420.474182,377.256470 453.278320,401.309265 499.522064,408.056335 
z" />
	<path fill="#FFFFFF" opacity="1.000000" stroke="none" d="
M499.072571,408.025330 
	C453.278320,401.309265 420.474182,377.256470 403.088409,334.969177 
	C385.445587,292.056702 391.762115,251.092285 420.845337,214.900482 
	C447.123627,182.199173 482.462006,167.699829 524.051697,171.353348 
	C577.935547,176.086884 620.454651,216.305939 629.851562,267.847717 
	C641.181702,329.993164 604.414490,388.090912 543.568176,404.884521 
	C529.179382,408.855835 514.428406,410.117310 499.072571,408.025330 
z" />
	<path fill="#FFFFFF" opacity="1.000000" stroke="none" d="
M536.765869,424.096161 
	C562.357300,427.366180 586.423889,434.193939 608.717224,446.429108 
	C666.891724,478.356720 703.145020,526.646423 716.121155,591.904724 
	C721.524048,619.076843 720.938965,646.662903 718.883606,674.055176 
	C716.762939,702.319336 691.161011,726.279358 662.946960,728.288147 
	C660.455811,728.465515 657.954895,728.598145 655.458557,728.598572 
	C560.497253,728.614258 465.535919,728.590088 370.574585,728.627197 
	C345.983490,728.636780 327.437805,717.965149 314.611847,697.204407 
	C309.542480,688.998962 306.332764,679.865906 306.369873,670.291931 
	C306.456329,648.001770 305.945923,625.574585 308.184418,603.456665 
	C312.281189,562.978455 328.842834,527.349060 355.094849,496.306000 
	C382.641846,463.731720 417.050629,441.623138 458.104126,430.149872 
	C483.710907,422.993530 509.863556,421.147522 536.765869,424.096161 
z" />

</svg>