<svg id="egFKu7vCLJ41" xmlns="http://www.w3.org/2000/svg" xmlns:xlink="http://www.w3.org/1999/xlink"
  viewBox="0 0 500 500" shape-rendering="geometricPrecision" text-rendering="geometricPrecision">
  <g>
    <path
      d="M451.67,117q-2.52-4.2-5.25-8.22c-24.28-35.67-64.69-60.09-104-71.15-17.124101-4.739809-34.751329-7.425351-52.51-8C174.23,25.43,131.73,120.8,94.46,145.4s-94.46,66.51-87.25,154.75c5.44,67.09,43.61,131.24,113.31,160.43c7.874002,3.304243,15.954351,6.09345,24.19,8.35c16.68206,4.522756,33.819657,7.155955,51.09,7.85c52.7,2.35,95.49-10.35,137.35-42.34c9.73-7.44,19.41-15.83,32-16.75c9.18-.66,17.88,2.63,8.29,11.5-11.28,10.43,1.73,30.93,30.35,16.69c47.81-23.8,67.47-75.13,76.73-127.32c11.41-64.07,5.89-143.75-28.85-201.56Z"
      fill="#4AB9A4" />
    <path
      d="M451.67,117q-2.52-4.2-5.25-8.22c-24.28-35.67-64.69-60.09-104-71.15-17.124101-4.739809-34.751329-7.425351-52.51-8C174.23,25.43,131.73,120.8,94.46,145.4s-94.46,66.51-87.25,154.75c5.44,67.09,43.61,131.24,113.31,160.43c7.874002,3.304243,15.954351,6.09345,24.19,8.35c16.68206,4.522756,33.819657,7.155955,51.09,7.85c52.7,2.35,95.49-10.35,137.35-42.34c9.73-7.44,19.41-15.83,32-16.75c9.18-.66,17.88,2.63,8.29,11.5-11.28,10.43,1.73,30.93,30.35,16.69c47.81-23.8,67.47-75.13,76.73-127.32c11.41-64.07,5.89-143.75-28.85-201.56Z"
      opacity="0.7" fill="#fff" />
  </g>
  <g>
    <path
      d="M206.19,460.54c-3.7,0-7.53-.09-11.38-.26-16.061839-.647808-32.000874-3.089646-47.52-7.28-7.488721-2.058943-14.837229-4.597519-22-7.6C66.6,420.84,28.38,366.5,23,300c-2.8-34.2,4.78-63,23.15-88c15.51-21.14,36.19-36.28,56.22-49.5c13.07-8.62,24.73-21.68,38.24-36.79c31.75-35.53,71.27-79.75,143.52-79.75c2.21,0,4.48,0,6.73.12c16.443437.537942,32.764624,3.028753,48.62,7.42c39.15,11,74.26,34.86,93.93,63.77c1.57,2.31,3.15,4.77,4.68,7.32c34.67,57.73,36.58,137.15,26.8,192.23-9.68,54.57-27.59,89.35-56,108.2-.337052-2.050407-.883236-4.060898-1.63-6-5-12.79-18-20.43-34.68-20.43-1.4,0-2.83.05-4.25.16-19.79,1.44-34.16,12.55-44.65,20.67L321,421.46c-35.33,27.03-70.75,39.08-114.81,39.08Z"
      fill="#263238" />
  </g>
  <g>
    <circle r="4.69" transform="translate(362.53 100.87)" fill="#b2b2b2" />
    <circle r="4.69" transform="translate(441.07 180.24)" fill="#b2b2b2" />
    <circle r="4.69" transform="translate(116.79 402.6)" fill="#b2b2b2" />
    <circle r="4.69" transform="translate(402.48 398.53)" fill="#b2b2b2" />
    <path
      d="M248.49,60c0,1.480123-1.199877,2.68-2.68,2.68s-2.68-1.199877-2.68-2.68s1.199877-2.68,2.68-2.68c.71078,0,1.392449.282356,1.895046.784954s.784954,1.184266.784954,1.895046Z"
      fill="#b2b2b2" />
    <circle r="4.69" transform="translate(62 221.83)" fill="#b2b2b2" />
    <circle r="2.33" transform="translate(400.24 104.37)" fill="#b2b2b2" />
    <circle r="2.33" transform="translate(86.94 371.26)" fill="#4AB9A4" />
    <circle r="2.33" transform="translate(430.61 352.08)" fill="#4AB9A4" />
    <path
      d="M216.25,416.32c.004049.943296-.561064,1.795963-1.431397,2.159756s-1.874143.166924-2.542593-.498658-.869635-1.668536-.509589-2.540425s1.210274-1.440664,2.153579-1.440673c1.282928-.000012,2.324494,1.037083,2.33,2.32Z"
      fill="#4AB9A4" />
    <path
      d="M97,334.17c0,.942397-.567686,1.792-1.438348,2.152639s-1.872835.161295-2.539211-.50508-.86572-1.66855-.50508-2.539211s1.210242-1.438348,2.152639-1.438348c1.284548.005478,2.324522,1.045452,2.33,2.33Z"
      fill="#b2b2b2" />
    <path
      d="M193.36,445.78c0,.942397-.567686,1.792-1.438348,2.152639s-1.872835.161295-2.539211-.50508-.86572-1.66855-.50508-2.539211s1.210242-1.438348,2.152639-1.438348c.61877-.002673,1.212969.24195,1.650509.679491s.682164,1.031739.679491,1.650509Z"
      fill="#b2b2b2" />
    <path
      d="M327.41,70.68c0,.942397-.567686,1.792-1.438348,2.152639s-1.872835.161295-2.539211-.50508-.86572-1.66855-.50508-2.539211s1.210242-1.438348,2.152639-1.438348c1.286823,0,2.33,1.043177,2.33,2.33Z"
      fill="#4AB9A4" />
    <path
      d="M331.43,325.22c0,.942397-.567686,1.792-1.438348,2.152639s-1.872835.161295-2.539211-.50508-.86572-1.66855-.50508-2.539211s1.210242-1.438348,2.152639-1.438348c.61877-.002673,1.212969.24195,1.650509.679491s.682164,1.031739.679491,1.650509Z"
      fill="#b2b2b2" />
    <path
      d="M438.32,234.73c-.000009.943305-.568783,1.793534-1.440673,2.153579s-1.874844.158862-2.540425-.509589-.862451-1.67226-.498658-2.542593s1.21646-1.435446,2.159756-1.431397c1.282917.005506,2.320012,1.047072,2.32,2.33Z"
      fill="#b2b2b2" />
    <circle r="2.33" transform="translate(57.33 323.94)" fill="#4AB9A4" />
    <circle r="2.33" transform="translate(264.74 429.46)" fill="#b2b2b2" />
    <circle r="2.33" transform="translate(180.32 338.65)" fill="#4AB9A4" />
    <path
      d="M335.49,150.62c-.000009.943305-.568783,1.793534-1.440673,2.153579s-1.874844.158862-2.540425-.509589-.862451-1.67226-.498658-2.542593s1.21646-1.435446,2.159756-1.431397c.617039-.000006,1.20866.245794,1.644033.683044s.678627,1.029923.675967,1.646956Z"
      fill="#4AB9A4" />
  </g>
  <g>
    <path d="M137.66,393.7v-40h14.47v2.91h-10.67v15h8.7v2.77h-8.7v16.49h10.77v2.82Z" fill="#b2b2b2" />
    <path
      d="M157.37,393.7v-40h9c2.037551-.104785,4.068174.311665,5.9,1.21c1.402878.77713,2.49176,2.018031,3.08,3.51.666275,1.741319.9856,3.596124.94,5.46.009924,1.411521-.154657,2.818856-.49,4.19-.287893,1.236561-.863487,2.387749-1.68,3.36-.88176.971229-2.065771,1.616092-3.36,1.83l6.13,20.45h-3.66L167.39,374h-6.27v19.7Zm3.75-22.43h5.09c1.351878.075729,2.699165-.214456,3.9-.84.938371-.560236,1.647189-1.435626,2-2.47.436475-1.318032.639523-2.702139.6-4.09.135765-1.934283-.313726-3.864657-1.29-5.54-.85-1.21-2.55-1.82-5.08-1.82h-5.19Z"
      fill="#b2b2b2" />
    <path
      d="M182.65,393.7v-40h9c2.040529-.101658,4.073609.314591,5.91,1.21c1.402878.77713,2.49176,2.018031,3.08,3.51.666275,1.741319.9856,3.596124.94,5.46.009924,1.411521-.154657,2.818856-.49,4.19-.287893,1.236561-.863487,2.387749-1.68,3.36-.88176.971229-2.065771,1.616092-3.36,1.83l6.12,20.45h-3.65L192.68,374h-6.27v19.7Zm3.76-22.43h5.09c1.351762.074245,2.69866-.215856,3.9-.84.938371-.560236,1.647189-1.435626,2-2.47.436475-1.318032.639523-2.702139.6-4.09.135765-1.934283-.313726-3.864657-1.29-5.54-.86-1.21-2.55-1.82-5.09-1.82h-5.18Z"
      fill="#b2b2b2" />
    <path
      d="M217.38,394.19c-2.17565.120004-4.336781-.420279-6.2-1.55-1.510076-1.055896-2.622666-2.587468-3.16-4.35-.643285-2.071235-.953813-4.231432-.92-6.4v-16.59c-.036309-2.158563.302039-4.30707,1-6.35.576748-1.708161,1.706237-3.175441,3.21-4.17c3.841254-1.973915,8.398746-1.973915,12.24,0c1.502158.991564,2.626045,2.460721,3.19,4.17.667085,2.049006.984849,4.195605.94,6.35v16.64c.033544,2.157977-.273565,4.307735-.91,6.37-.540194,1.750277-1.64421,3.272695-3.14,4.33-1.877008,1.140767-4.057464,1.68152-6.25,1.55Zm0-3c1.429398.096999,2.851399-.275179,4.05-1.06.951076-.759319,1.620069-1.815623,1.9-3c.365364-1.444349.540181-2.930293.52-4.42v-18.1c.020972-1.483155-.15387-2.962593-.52-4.4-.284281-1.152233-.95487-2.172235-1.9-2.89-2.524778-1.347556-5.555222-1.347556-8.08,0-.959972.709453-1.642491,1.731463-1.93,2.89-.362416,1.437919-.53389,2.917304-.51,4.4v18.12c-.02322,1.489257.148231,2.975165.51,4.42.282694,1.190706.963617,2.249134,1.93,3c1.19662.770065,2.610632,1.131462,4.03,1.03Z"
      fill="#b2b2b2" />
    <path
      d="M233.87,393.7v-40h9c2.037551-.104785,4.068174.311665,5.9,1.21c1.40191.781189,2.492818,2.020376,3.09,3.51.661356,1.742666.980514,3.5965.94,5.46.004957,1.411244-.159554,2.817979-.49,4.19-.292106,1.235038-.867233,2.385293-1.68,3.36-.883226.969362-2.066543,1.613848-3.36,1.83l6.12,20.45h-3.65L243.9,374h-6.27v19.7Zm3.76-22.43h5.08c1.351878.075729,2.699165-.214456,3.9-.84.937793-.560902,1.646417-1.436053,2-2.47.431693-1.318959.631319-2.702807.59-4.09.138161-1.933213-.307788-3.863336-1.28-5.54-.86-1.21-2.55-1.82-5.09-1.82h-5.18Z"
      fill="#b2b2b2" />
    <path
      d="M269.24,393.7v-40h9.58c1.97164-.104652,3.932077.356831,5.65,1.33c1.360785.880297,2.393956,2.18406,2.94,3.71.626812,1.792103.92822,3.681825.89,5.58.019091,1.777806-.289387,3.543927-.91,5.21-.578146,1.557149-1.626644,2.895731-3,3.83-1.64725,1.020232-3.564428,1.518698-5.5,1.43h-5.89v18.91ZM273,372h4.79c1.346926.050788,2.68856-.195007,3.93-.72c1.010772-.492572,1.797015-1.350291,2.2-2.4.516018-1.455835.750186-2.996592.69-4.54.05776-1.611918-.144841-3.2226-.6-4.77-.31863-1.043693-1.063087-1.904358-2.05-2.37-1.313555-.500155-2.715941-.724809-4.12-.66h-4.84Z"
      fill="#b2b2b2" />
    <path d="M288.89,393.7l8.45-40h4l8.5,40h-3.71l-2-10.72h-9.54l-2,10.72Zm6.23-13.44h8.49l-4.3-21.58Z"
      fill="#b2b2b2" />
    <path
      d="M323.57,394.24c-2.087908.115343-4.158198-.438135-5.91-1.58-1.463854-1.120018-2.51815-2.690919-3-4.47-.630136-2.172822-.930153-4.428006-.89-6.69v-15.61c-.040534-2.253397.249208-4.500582.86-6.67.500862-1.758707,1.57863-3.297873,3.06-4.37c3.70302-1.986646,8.136137-2.068534,11.91-.22c1.407969.927962,2.464237,2.30111,3,3.9.668403,2.020934.98302,4.142061.93,6.27v1.39h-3.53v-1.39c.033112-1.595872-.14169-3.189263-.52-4.74-.260499-1.115161-.895908-2.107105-1.8-2.81-1.140498-.703939-2.47296-1.032683-3.81-.94-1.463503-.106725-2.917132.311637-4.1,1.18-.95305.850526-1.587921,2.000349-1.8,3.26-.295766,1.562312-.43645,3.150024-.42,4.74v16.45c-.031939,1.681667.142701,3.360894.52,5c.261866,1.243513.943281,2.359198,1.93,3.16c1.172842.802765,2.582035,1.186769,4,1.09c2.743153.294932,5.246569-1.583722,5.73-4.3.387165-1.637736.568565-3.317365.54-5v-4.69h-5.92v-2.81h9.38v19.31h-2.42l-.44-4.55c-.430824,1.452199-1.283607,2.743555-2.45,3.71-1.407113,1.009766-3.122073,1.497734-4.85,1.38Z"
      fill="#b2b2b2" />
    <path d="M340.16,393.7v-40h14.47v2.91h-10.63v15h8.7v2.77h-8.7v16.49h10.77v2.82Z" fill="#b2b2b2" />
  </g>
  <g>
    <path
      d="M121.82,338.88v-49.07h-59.66v-29.09l52-121.54h39.69v123.51h20.46v27.12h-20.44v49.07ZM90.75,262.69h31.07v-86.78Zm153.6,79.14q-17.5,0-29-7.39c-7.647019-4.949627-13.645604-12.065765-17.23-20.44q-5.79-13.08-5.79-30.08v-88.53q0-17.5,5.55-30.69c3.406828-8.452767,9.344885-15.644803,17-20.59q11.46-7.4,29.46-7.4t29.46,7.4c7.650286,4.950622,13.586931,12.140947,17,20.59q5.55,13.19,5.55,30.69v88.51q0,17-5.8,30.08c-3.585358,8.384941-9.591703,15.508988-17.25,20.46q-11.45,7.4-28.95,7.39Zm0-29.33q7.64,0,11.34-4.69c2.546327-3.319745,4.239156-7.213595,4.93-11.34.808146-4.309981,1.219865-8.684919,1.23-13.07v-87.52c.001422-4.582549-.369801-9.157626-1.11-13.68-.589904-4.170419-2.246721-8.117847-4.81-11.46q-3.69-4.68-11.58-4.69t-11.59,4.69c-2.541469,3.349574-4.180452,7.295527-4.76,11.46-.740199,4.522374-1.111422,9.097451-1.11,13.68v87.52c.01018,4.391448.465847,8.770534,1.36,13.07.762488,4.126288,2.493232,8.012751,5.05,11.34q3.7,4.7,11.05,4.69Zm133.38,26.38v-49.07h-59.67v-29.09l52-121.54h39.69v123.51h20.47v27.12h-20.45v49.07Zm-31.07-76.19h31.07v-86.78Z"
      fill="#4AB9A4" stroke="#263238" stroke-miterlimit="10" />
  </g>
  <!-- SpaceMan Object -->
  <g id="egFKu7vCLJ439" transform="translate(44.247158-31.350382)">
    <g opacity="0.3">
      <path
        d="M320.7,285.13l.13.12c.176819.143598.363994.273952.56.39l.16.08c.176161.103929.360033.194194.55.27l.2.08c.262882.107449.533692.194376.81.26h.14c.26.06.53.11.83.15h.28c.35,0,.72.08,1.12.09v0c1.410469.038225,2.813484-.217178,4.12-.75.696648-.269658,1.366285-.604476,2-1c.434841-.275077.855386-.572129,1.26-.89.21-.16.41-.33.61-.51.405326-.353611.789333-.730939,1.15-1.13c3.32-3.64,5.27-9.31,3.65-16-.4-1.66-.83-3.22-1.28-4.72-.699686-2.331221-1.537842-4.618619-2.51-6.85-.24-.54-.48-1.07-.74-1.58-.56606-1.154784-1.197071-2.27658-1.89-3.36-.44-.69-.9-1.35-1.37-2-1.060248-1.40852-2.320161-2.654958-3.74-3.7-.33-.24-.67-.46-1-.66-.085741-.054458-.176086-.101304-.27-.14l-7.42,17.33v19.39c.71,2,1.19,3.75,2.45,5v0Z" />
      <path
        d="M296.37,280v-34.33c-1,0-1.88.08-2.67.13.106137-5.422858-.502429-10.836075-1.81-16.1-.033687-6.570584-2.72028-12.848919-7.45-17.41-.47-6.64-4.18-14.4-8.33-19.84.10311.009612.20689.009612.31,0c1.66-.18,2.7-2.26,3.43-5.84.1-.49.18-.95.24-1.39c1.495715-.922627,2.761171-2.174401,3.7-3.66.528662-1.129953.866566-2.339648,1-3.58c1.828442-1.103069,3.483121-2.471296,4.91-4.06c1.343152-1.583667,2.222213-3.507911,2.54-5.56-.43-1.25-.9-2.48-1.4-3.68-2.11251-5.047932-5.105764-9.680026-8.84-13.68-1.081367-.568683-2.221412-1.017995-3.4-1.34-1.070186-.28798-2.171883-.442487-3.28-.46-6.066236-1.204643-12.226597-1.873884-18.41-2-3-.07-5.67,0-8.08.09-2.072431-.900383-4.343756-1.245045-6.59-1-1.384578.145126-2.735908.516742-4,1.1-3.520549-.943665-7.180615-1.25516-10.81-.92-.76.09-1.51.18-2.24.29c0-.38-.05-.76-.1-1.14-.08-.73-.19-1.45-.32-2.16.079673-1.332143.079673-2.667857,0-4-3.523183,1.099387-6.885626,2.659561-10,4.64-7.655115,4.945197-13.593172,12.137233-17,20.59q-5.55,13.19-5.55,30.69v8.78c3.58,4.63,7.9,9.82,10.75,11.81l.62.64c.2,3.45.81,11.22,2.31,13.78c0,0-1.18,4.12.82,6.21-.61,4.62-1.42,16.19,3.38,27.59c3.73,8.85,10.09,13.63,16.63,15.15v-83.46c.051445-4.586906.476181-9.162013,1.27-13.68.594281-4.169211,2.25065-8.115569,4.81-11.46q3.7-4.68,11.59-4.69t11.58,4.69c2.563279,3.342153,4.220096,7.289581,4.81,11.46.740199,4.522374,1.111422,9.097451,1.11,13.68v87.52c0,1.48-.07,3-.16,4.46.05.28.11.55.18.8v0c.081291.276565.181528.547205.3.81.019148.051849.042561.10202.07.15.085828.181132.186154.355032.3.52l.09.12c.12824.178985.275796.343308.44.49v0c.15387.136842.32142.257478.5.36l.14.08.5.24h.1c.21.08.43.15.67.22h.16c.19.06.4.11.61.16l.23.06.75.17c3.62.84,9.8-4.07,11.38-9c.330436-1.072733.577833-2.169304.74-3.28l.6-.09c5.552906,1.16674,11.275714,1.278686,16.87.33Zm-22.95-90.67v0l.06-.43c-.05.1-.06.28-.06.39Zm.31-2.49c.06-.51.13-1,.19-1.5v0c-.05.49-.13.99-.19,1.46Z" />
      <path
        d="M153.87,207.26c-1.29,3.23-2.43,6.14-3,7.76-1.84,5.17-3.77,11-3.73,14.34s2.11,7.62,3.73,7.76s2.77-.93,3-3.18Z" />
    </g>
    <path
      d="M269.13,217.18c.616674,5.006504.930578,10.045668.94,15.09-.06,7.6,1.72,7.76,5.35,8.6s9.8-4.07,11.38-9s1.43-14.46,1.43-14.46Z"
      fill="#dedede" />
    <path
      d="M276.29,241.46c-.336003.003695-.671382-.029843-1-.1l-.34-.08c-3.78-.87-5.45-1.57-5.39-9-.011553-5.014041-.322104-10.022932-.93-15l-.08-.57l20.16.23v.49c0,.39.13,9.66-1.46,14.62s-7.05,9.41-10.96,9.41Zm-6.59-23.77c.57072,4.839174.861205,9.707295.87,14.58-.06,7,1.31,7.27,4.62,8l.34.08c3.35.78,9.3-4,10.79-8.67c1.34-4.17,1.42-11.81,1.41-13.81Z"
      fill="#263238" />
    <path
      d="M285.67,226.34c-.17,3.37-1.17,8.78-6.18,11.44-2.846188,1.522986-6.296225,1.373485-9-.39.74,2.64,2.37,2.9,4.89,3.48c3.62.84,9.8-4.07,11.38-9s1.43-14.46,1.43-14.46h-2.23c-.04,2.47-.18,6.66-.29,8.93Z"
      fill="#dedede" />
    <path
      d="M276.29,241.46c-.336003.003695-.671382-.029843-1-.1l-.33-.08c-2.31-.53-4.13-.95-4.92-3.76l-.36-1.26l1.11.71c2.546342,1.641798,5.780046,1.783225,8.46.37c4.56-2.43,5.73-7.34,5.91-11v0c.12-2.43.27-7.07.33-8.95v-.49h3.21v.49c0,.39.13,9.66-1.46,14.62s-7.04,9.45-10.95,9.45Zm-4.75-3c.72,1.14,1.88,1.41,3.65,1.82l.34.07c3.35.78,9.3-4,10.79-8.67c1.34-4.17,1.42-11.81,1.41-13.81h-1.25c-.07,2.11-.2,6.23-.31,8.48-.19,3.95-1.47,9.21-6.44,11.86-2.534557,1.374269-5.567504,1.477959-8.19.28Z"
      fill="#263238" />
    <path
      d="M251.9,224.35c4.830316-.323906,9.583967-1.375778,14.1-3.12c8.15-3,17.3-9.83,15.34-16.5s-12.58-8.52-16.77-8.07c-3.030948.383796-6.03629.948132-9,1.69s1.02,18.78-3.67,26Z"
      fill="#dedede" />
    <path
      d="M251,224.87l.51-.79c4.55-7,3.64-25.52,3.63-25.71v-.41l.4-.1c2.984186-.74322,6.009375-1.310861,9.06-1.7c4.24-.45,15.22,1.32,17.31,8.43c1.95,6.64-6.6,13.77-15.65,17.11-4.575947,1.780347-9.39953,2.842884-14.3,3.15Zm5.16-26.14c.11,2.77.55,17.89-3.32,25.07c4.464935-.429878,8.855049-1.438327,13.06-3c8.61-3.18,16.81-9.83,15-15.89-1.9-6.45-12.39-8.13-16.24-7.71-2.870804.342769-5.71903.853647-8.53,1.53Z"
      fill="#263238" />
    <path
      d="M248,227.08c3.366728-.81372,6.382102-2.689563,8.6-5.35c3.25-4.24,4.45-11.08,2.71-15.66s-11.31,21.01-11.31,21.01Z"
      fill="#4AB9A4" />
    <path
      d="M247.17,227.75l.32-.85c1.92-5.13,8.41-21.87,11.21-21.88v0c.26,0,.75.11,1,.87c1.78,4.7.56,11.79-2.78,16.14-2.286025,2.764515-5.410254,4.70926-8.9,5.54ZM258.67,206c-1.37,0-6.13,10.39-9.9,20.32c2.896557-.865862,5.469375-2.575271,7.39-4.91c3.15-4.1,4.31-10.77,2.65-15.17-.024934-.090842-.073198-.173581-.14-.24Z"
      fill="#263238" />
    <path
      d="M215.83,183.24c0,0-3.14,15,3,29.69s19.64,18.18,29.09,14.15s11.71-17.34,11.81-26.19-.16-12.87-.16-12.87-31.76,3.1-43.74-4.78Z"
      fill="#dedede" />
    <path
      d="M240.23,229.13c-2.762125-.005356-5.497808-.538237-8.06-1.57-4.22-1.71-10-5.61-13.76-14.44-6.17-14.66-3.11-29.83-3.07-30l.15-.72.61.4c11.7,7.7,43.14,4.73,43.46,4.7l.51-.05v.52c0,0,.26,4.15.16,12.91-.07,6.49-1.4,22.07-12.12,26.64-2.492112,1.059703-5.171941,1.607232-7.88,1.61Zm-24-45.07c-.51,3.14-2.15,16.1,3.14,28.68c3.59,8.51,9.17,12.25,13.22,13.89c4.872149,2.0031,10.337851,2.0031,15.21,0c10.18-4.34,11.44-19.44,11.51-25.73.08-7-.07-11-.13-12.32-4.28.36-31.32,2.42-42.99-4.52Z"
      fill="#263238" />
    <path
      d="M214.67,179.13c0,0-1.41,4.92,1.44,6.73s17.56,10.45,35,7.14c9.76-1.85,7.61-4.71,7.44-6.28s-43.88-7.59-43.88-7.59Z"
      fill="#4AB9A4" />
    <path
      d="M243.13,194.25c-9.648959-.174566-19.073935-2.937476-27.29-8-3.12-2-1.71-7.07-1.65-7.29l.12-.42.43.06c.11,0,11.07,1.53,21.9,3.21c22.29,3.46,22.38,4.22,22.44,4.83.029515.195355.069574.388971.12.58.344819.951041.249572,2.006091-.26,2.88-.95,1.48-3.4,2.55-7.7,3.36-2.672482.517735-5.387841.78224-8.11.79Zm-28.08-14.56c-.24,1.16-.72,4.45,1.33,5.75c2.76,1.75,17.4,10.34,34.67,7.07c3.91-.74,6.28-1.72,7.05-2.92.349181-.650659.396667-1.421398.13-2.11q-.08-.28-.12-.54c-2.11-1.24-27.17-5.06-43.06-7.25Z"
      fill="#263238" />
    <path
      d="M212.29,163.67c0,0,.43,12.14,2.38,15.46s27.77,13.41,40.88,10.57s34.45-14.52,37.05-23.1-4.16-22.08-10.52-28.58-9.15-7.78-9.15-7.78-15.58,20.76-34.93,27.64-25.71,5.79-25.71,5.79Z"
      fill="#fff" />
    <path
      d="M250.25,190.7c-13.93,0-34.13-8.12-36-11.32-2-3.39-2.44-15.19-2.45-15.69v-.61l.6.1c.06,0,6.49.95,25.43-5.77s34.58-27.26,34.73-27.47l.25-.32.36.17c.12.05,2.95,1.4,9.3,7.88s13.39,20,10.64,29.08-24.61,20.67-37.42,23.44c-1.790571.35935-3.613839.530281-5.44.51Zm-37.44-26.48c.12,2.42.66,11.88,2.29,14.66s27.07,13.2,40.35,10.33c13.62-3,34.24-14.74,36.67-22.75c2.6-8.59-4.49-22.06-10.4-28.09-5-5.06-7.74-6.93-8.65-7.48-2.16,2.75-17,21.1-34.93,27.46-16.24,5.76-23.34,5.97-25.33,5.87Z"
      fill="#263238" />
    <path
      d="M315.21,194.34c0,0,13.72-5.37,19.2-2.08s9.67,11,12.55,22.83-5.54,20.55-12.81,20.28-6-5-8.83-9.81-6.31-7.61-6.54-8.12s3.22-15.71-3.57-23.1Z"
      fill="#fff" />
    <path
      d="M334.49,235.88h-.36c-5.53-.2-6.47-3-7.57-6.13-.423031-1.364409-.986026-2.681414-1.68-3.93-1.56461-2.601205-3.456748-4.990743-5.63-7.11-.353102-.287419-.662951-.624212-.92-1-.1-.21-.07-.41.08-1.6.49-3.8,2-15.36-3.56-21.37l-.5-.54.68-.26c.57-.23,14-5.43,19.64-2s9.86,11.06,12.77,23.06c1.476483,5.470473.290905,11.316855-3.2,15.78-2.334864,3.05941-5.905307,4.927026-9.75,5.1Zm-15.22-18.6c.11.13.41.43.69.72c2.239523,2.174649,4.18593,4.632031,5.79,7.31.719474,1.305754,1.30897,2.679011,1.76,4.1c1.05,3.07,1.82,5.28,6.66,5.46c3.3.12,6.77-1.65,9.3-4.75c3.294559-4.223034,4.406234-9.751766,3-14.92-2.85-11.74-7-19.32-12.32-22.51-4.53-2.73-15.3.86-18.09,1.87c5.29,6.46,3.83,17.81,3.34,21.62-.06.44-.11.9-.13,1.1Z"
      fill="#263238" />
    <path
      d="M334.41,192.26c-1.781529-.865539-3.770731-1.212089-5.74-1c2.78,2.06,8.26,7.08,11.85,16.63c5,13.23,2.72,20.19.18,22.76s-7.92,3.51-10.25,3.23l-1.3-.15c1,1,2.49,1.6,5,1.69c7.27.27,15.69-8.41,12.81-20.28s-7.07-19.59-12.55-22.88Z"
      fill="#fff" />
    <path
      d="M334.49,235.88h-.36c-2.45-.09-4.14-.67-5.33-1.84l-1.05-1l2.76.33c2.12.25,7.36-.59,9.83-3.09c2.83-2.86,4.23-10.19-.29-22.23-3.51-9.35-8.82-14.29-11.68-16.41l-1.13-.84l1.41-.06c2.065992-.209062,4.148559.179684,6,1.12c5.56,3.34,9.86,11.12,12.77,23.14c1.476483,5.470473.290905,11.316855-3.2,15.78-2.330435,3.054188-5.892419,4.921209-9.73,5.1Zm-3.26-1.5c.948632.314921,1.940509.480234,2.94.49c3.3.12,6.77-1.65,9.3-4.75c3.294559-4.223034,4.406234-9.751766,3-14.92-2.85-11.74-7-19.32-12.32-22.51v0c-1.229854-.65968-2.604397-1.003316-4-1c4.945044,4.28821,8.685009,9.793025,10.85,15.97c5.9,15.71,1.54,21.8.06,23.29-2.46,2.48-7.21,3.45-9.83,3.43Z"
      fill="#263238" />
    <path
      d="M286.21,228c0,0,12.94,3.72,25-1.12s19.09-12.84,16.44-22.62-7.64-10.12-18.57-10-13.13,1.07-13.13,1.07-.41,27.67-9.74,32.67Z"
      fill="#fff" />
    <path
      d="M297.39,229.89c-3.815914.020884-7.619237-.439412-11.32-1.37l-1.18-.33l1.08-.59c9-4.88,9.43-31.95,9.43-32.23v-.32l.29-.13c.1,0,2.41-1,13.32-1.11s16.32.26,19.06,10.36c2.56,9.44-3.54,17.9-16.73,23.22-4.449556,1.709829-9.183589,2.558222-13.95,2.5Zm-9.94-2.06c3.36.75,13.82,2.54,23.52-1.37c12.67-5.1,18.56-13.13,16.15-22-2.56-9.43-7.12-9.75-18.08-9.62-8.66.1-11.76.7-12.64.94-.08,3.22-.88,25.96-8.95,32.05Z"
      fill="#263238" />
    <ellipse rx="23.96" ry="22.12" transform="matrix(.093935-.995578 0.995578 0.093935 278.422054 179.172403)"
      fill="#4AB9A4" />
    <path
      d="M278.11,203.63c-.667972.002316-1.335591-.031065-2-.1-12.42-1.17-21.49-13.05-20.22-26.48s12.4-23.4,24.81-22.23c6.094496.595275,11.652643,3.741258,15.3,8.66c3.852111,5.097986,5.63781,11.462216,5,17.82-1.25,12.7-11.29,22.33-22.89,22.33Zm.63-47.9c-11.09,0-20.69,9.22-21.84,21.42-1.21,12.88,7.45,24.27,19.32,25.39s22.51-8.45,23.73-21.33v0c.630127-6.10594-1.070068-12.224497-4.76-17.13-3.472239-4.682378-8.759411-7.681832-14.56-8.26q-.94-.09-1.89-.09Z"
      fill="#263238" />
    <ellipse rx="21.74" ry="20.06" transform="matrix(.093935-.995578 0.995578 0.093935 285.151004 207.05013)"
      fill="#4AB9A4" />
    <path
      d="M284.88,229.28c-.6,0-1.2,0-1.81-.09-5.525834-.54381-10.564047-3.398918-13.87-7.86-3.496723-4.639776-5.107972-10.430984-4.51-16.21c1.15-12.2,11.27-21.28,22.56-20.2s19.54,11.86,18.39,24.07v0c-1.09,11.55-10.22,20.29-20.76,20.29Zm.57-43.45c-10,0-18.72,8.35-19.77,19.39-.565719,5.525004.973393,11.060094,4.31,15.5c3.140895,4.241575,7.927946,6.958354,13.18,7.48c10.73,1,20.37-7.65,21.47-19.31s-6.74-22-17.48-23c-.57-.03-1.16-.06-1.71-.06Z"
      fill="#263238" />
    <path
      d="M302.36,194.68c0,0,.9-19.35-8.55-30s-30.94-1.94-34.51,14s4,39.83,13.83,46s18.2.14,23.81-8.42s5.42-21.58,5.42-21.58Z"
      fill="#fff" />
    <path
      d="M281.19,227.75c-2.970832-.063289-5.861421-.975924-8.33-2.63-10.23-6.41-17.58-30.76-14.05-46.53c2.23-10,10.88-16.38,18.47-18.35c6.83-1.77,13-.26,16.9,4.13c9.43,10.6,8.72,29.32,8.68,30.32c0,.73.07,13.35-5.5,21.87-3.09,4.71-8.7,11.19-16.17,11.19Zm1.52-67.23c-1.748756.012063-3.489062.24388-5.18.69-7.29,1.89-15.61,8.06-17.74,17.6-3.46,15.44,3.66,39.24,13.6,45.46c10.93,6.85,19.18-2.24,23.13-8.26c5.45-8.33,5.34-21.2,5.34-21.32v0c0-.2.78-19.27-8.43-29.62-2.738312-3.008116-6.653958-4.670074-10.72-4.55Z"
      fill="#263238" />
    <path
      d="M168.85,140.49c0,0-7.48,18.1-9.32,23.26s-3.78,11-3.73,14.34s2.11,7.62,3.72,7.76s2.78-.94,3-3.21.13-3.21,1.27-4.46c1.5983-1.468156,3.332799-2.780749,5.18-3.92.46-.21.81,1.51-.27,3.39s-3.45,3.58-2,5.49s4.44-.32,6-1.93c1.877525-2.015104,3.209576-4.47613,3.87-7.15.65-2.79.33-8.68.33-8.68l13.22-12.48c0,0-17.43-2.1-21.27-12.41Z"
      fill="#dedede" />
    <path
      d="M159.81,186.37h-.33c-2.06-.18-4.14-4.88-4.18-8.25s1.78-9,3.75-14.51c1.83-5.12,9.26-23.11,9.33-23.3l.49-1.17.45,1.19c3.69,9.9,20.78,12.07,21,12.09l1.06.13-13.82,13.05c.05,1.14.23,6-.37,8.6-.687368,2.758842-2.063663,5.298106-4,7.38-.87.88-3.12,2.93-5.06,2.82-.687478-.03299-1.323263-.374771-1.73-.93-1.34-1.72-.13-3.28.94-4.66.359703-.443781.693588-.90788,1-1.39.467507-.753488.684537-1.635612.62-2.52-1.677799,1.075922-3.260261,2.293715-4.73,3.64-.85.93-.92,1.64-1.05,3.21c0,.3-.06.61-.09,1-.29,2.25-1.49,3.62-3.28,3.62Zm9.05-44.6c-1.65,4-7.31,17.79-8.86,22.15-1.86,5.2-3.74,10.94-3.7,14.16c0,3.47,2.13,7.17,3.27,7.27c1.88.17,2.36-1.66,2.47-2.76c0-.34.06-.66.09-.94.14-1.64.23-2.63,1.32-3.81c1.639601-1.506813,3.425063-2.846747,5.33-4c.279562-.130773.612136-.056868.81.18.53.59.49,2.3-.44,3.92-.316754.524871-.67101,1.026176-1.06,1.5-1.12,1.45-1.76,2.38-.94,3.44.232833.323887.601473.522952,1,.54c1.25.07,3-1.25,4.28-2.52c1.814717-1.947295,3.102059-4.325781,3.74-6.91.63-2.69.33-8.48.33-8.54v-.23l12.64-11.94c-3.75-.65-16.25-3.28-20.28-11.51Z"
      fill="#263238" />
    <path
      d="M174.28,179.3c-2.08-.05-3.57-.55-4.41-1.48-.450643-.475036-.701284-1.10522-.7-1.76l1,.08h-.5.5c.023967.378857.187919.735275.46,1c.46.49,1.46,1.08,3.67,1.13Z"
      fill="#263238" />
    <path
      d="M162.7,178.76c-2.876916-.019522-5.404307-1.914051-6.23-4.67l1-.26c.799091,2.7216,3.533825,4.391865,6.32,3.86l.13,1c-.404833.048484-.812279.071862-1.22.07Z"
      fill="#263238" />
    <path
      d="M159.51,182.47c-1.196139-.030731-2.351639-.440409-3.3-1.17l.61-.79c.12.09,2.93,2.21,5.07-.15l.74.67c-.778979.913689-1.919319,1.44-3.12,1.44Z"
      fill="#263238" />
    <path
      d="M175.78,165.91c-4.57,0-8-1.15-10.3-3.42-1.701988-1.717935-2.667009-4.031832-2.69-6.45h1c.045611,2.143998.907567,4.189803,2.41,5.72c2.26,2.25,5.88,3.28,10.77,3.08l.05,1Z"
      fill="#263238" />
    <path d="M172.59,135.12c0,0-3.52.06-3.74,5.37s4,13.49,12.18,14.84s13.23-3.51,14.71-7.52-17.57-15.81-23.15-12.69Z"
      fill="#4AB9A4" />
    <path
      d="M183.76,156.07c-.941637-.003392-1.881426-.083659-2.81-.24-8.47-1.41-12.83-10-12.6-15.37.21-5.09,3.38-5.75,4.09-5.83c4.25-2.25,14.81,3,20.27,7.64c1.95,1.66,4.14,4,3.5,5.72-2.053624,5.030499-7.019226,8.253155-12.45,8.08ZM172.6,135.62c-.14,0-3,.16-3.25,4.89-.22,5,3.85,13,11.76,14.33c8.55,1.42,13-4.09,14.16-7.2.26-.69-.45-2.26-3.2-4.61-5.23-4.44-15.61-9.54-19.24-7.48l-.11.06Z"
      fill="#263238" />
    <path d="M181.75,120.67c0,0-8.64,10.39-10.15,15.67s2.26,15,11.84,16.17s15.28-6.78,15.28-6.78Z" fill="#dedede" />
    <path
      d="M185.37,153.13c-.668438-.000921-1.336248-.04099-2-.12-4.133977-.492282-7.838625-2.787553-10.12-6.27-2.18-3.31-3-7.44-2.14-10.53c1.52-5.33,9.89-15.43,10.24-15.86l.43-.51l17.54,25.89-.2.29c-.05.07-5.18,7.11-13.75,7.11Zm-3.66-31.62c-1.75,2.15-8.36,10.51-9.63,15-.79,2.78,0,6.68,2,9.71c2.101174,3.25706,5.557404,5.394707,9.41,5.82c8.17,1,13.49-4.94,14.59-6.3Z"
      fill="#263238" />
    <path
      d="M186.69,112.29c-3.852943,3.563857-6.21144,8.455951-6.6,13.69-.43,8.47,7.37,18.24,17.55,17.3s-2.57-31.4-10.95-30.99Z"
      fill="#4AB9A4" />
    <path
      d="M196.29,143.84c-4.153843-.04414-8.126133-1.709129-11.07-4.64-3.642661-3.417232-5.684999-8.20566-5.63-13.2.384587-5.362501,2.81123-10.373267,6.78-14l.13-.1h.36c6.49,0,14.4,15.83,15,24.55.32,4.53-1.17,7.17-4.18,7.45-.46-.08-.92-.06-1.39-.06Zm-9.4-31.06c-3.666966,3.472768-5.912335,8.184479-6.3,13.22-.057385,4.722397,1.873231,9.251361,5.32,12.48c3.073692,3.084288,7.350336,4.65739,11.69,4.3c3.05-.28,3.47-3.62,3.27-6.38-.64-9.1-8.49-23.58-13.98-23.62Z"
      fill="#263238" />
    <path
      d="M191,118.56c0,0-4.59,5.44-2,14.62c1.583349,5.520755,4.733958,10.463772,9.07,14.23s12.53,18,17.79,20.81s14.57,2.9,33.43-4.76s26.3-18.87,29.19-24.62-14.07-32.26-19.93-36.11c-5.694031-3.534325-12.387086-5.111021-19.06-4.49-3.600365.429403-7.168222,1.097541-10.68,2Z"
      fill="#4AB9A4" />
    <path
      d="M224,170.47c-2.905871.092515-5.790096-.528967-8.4-1.81-5.21-2.76-17-19.57-17.93-20.9-4.392935-3.823525-7.581893-8.839708-9.18-14.44-2.64-9.31,1.84-14.85,2-15.08l.17-.13L228.6,99.75c3.563168-.914579,7.18506-1.582824,10.84-2c6.787989-.620947,13.593754.983094,19.39,4.57c5.88,3.86,23.22,30.57,20.11,36.75-3.73,7.4-11.86,17.73-29.45,24.87-10.8,4.37-19.14,6.53-25.49,6.53ZM191.27,119c-.52.7-4.1,5.89-1.78,14.09c1.564866,5.422624,4.653944,10.281847,8.9,14l.1.1c.13.18,12.52,17.95,17.62,20.65c6.2,3.29,17,1.73,33-4.77c17.3-7,25.28-17.14,28.93-24.39c2.62-5.22-13.83-31.57-19.77-35.46-5.597987-3.467491-12.172393-5.018953-18.73-4.42-3.573299.433945-7.114249,1.102049-10.6,2Z"
      fill="#263238" />
    <path
      d="M187.59,115.55c0,0-4.53,5.46-1.93,14.62c1.583349,5.520755,4.733958,10.463772,9.07,14.23s12.53,18,17.79,20.8s14.57,2.9,33.43-4.75s26.29-18.87,29.19-24.63-14.07-32.25-19.93-36.1c-5.695699-3.539213-12.393558-5.116213-19.07-4.49-3.596975.430014-7.161467,1.098147-10.67,2Z"
      fill="#fff" />
    <path
      d="M220.69,167.46c-2.905982.093743-5.7905-.527802-8.4-1.81-5.21-2.77-17-19.57-17.93-20.91-4.395279-3.817409-7.584913-8.831179-9.18-14.43-2.64-9.31,1.84-14.85,2-15.08l.17-.13l37.87-18.36c3.563168-.914579,7.18506-1.582824,10.84-2c6.788349-.626093,13.59573.978328,19.39,4.57c5.88,3.86,23.22,30.57,20.11,36.75-3.73,7.4-11.86,17.73-29.45,24.86-10.77,4.38-19.11,6.54-25.42,6.54ZM187.92,116c-.52.7-4.1,5.89-1.78,14.09c1.554966,5.427082,4.645705,10.28892,8.9,14l.1.11c.13.18,12.52,17.95,17.62,20.65c6.2,3.29,17,1.72,33-4.77c17.31-7,25.29-17.14,28.93-24.39c2.63-5.22-13.82-31.57-19.76-35.46-5.597987-3.467491-12.172393-5.018953-18.73-4.42-3.573299.433945-7.114249,1.102049-10.6,2Z"
      fill="#263238" />
    <circle r="28.49" transform="matrix(.273959-.961741 0.961741 0.273959 205.48755 97.449086)" fill="#4AB9A4" />
    <path
      d="M205.43,126.44c-15.70507-.029286-28.532963-12.555157-28.936354-28.255073s11.764323-28.868021,27.447167-29.703784s29.181165,10.964559,30.448665,26.618426-10.156472,29.472156-25.769478,31.170431c-1.059364.115703-2.124339.172457-3.19.17Zm.11-57c-1.028956.001985-2.057076.058732-3.08.17-14.994139,1.664049-25.939651,14.960628-24.69144,29.995096s14.236599,26.343977,29.299866,25.512563s26.728098-13.501653,26.314118-28.582166-12.75635-27.091722-27.842544-27.095493Z"
      fill="#263238" />
    <circle r="32.17" transform="matrix(.619231-.785209 0.785209 0.619231 201.387129 90.032329)" fill="#ababab" />
    <path
      d="M201.33,122.71c-17.576473-.032966-31.976707-13.966196-32.588902-31.532035s12.783088-32.467784,30.31462-33.724317s32.915106,11.582754,34.814282,29.056352v0c1.931803,17.948904-11.051342,34.065911-29,36-1.175622.129353-2.35729.196114-3.54.2Zm.08-64.35c-1.149167.004289-2.297351.067706-3.44.19-17.38696,1.8912-29.949396,17.51829-28.060089,34.905455s17.515029,29.951303,34.9024,28.063889s29.953209-17.511767,28.067689-34.899344v0c-1.76228-16.059806-15.313824-28.229066-31.47-28.26Z"
      fill="#263238" />
    <path
      d="M223.46,94.59c.51337-1.052196.734418-2.223059.64-3.39-.2-2.42-2.91-6.88-4-8.09s-2.87.22-2.87.22l-2-3.59c-3.069325-5.695785-8.966449-9.298986-15.435241-9.431084s-12.508099,3.227351-15.807393,8.793083-3.347955,12.476359-.127366,18.088001l4.14,7.45-2.32-3.76c0,0-2.12.73-1.69,2.32s2.79,6.25,4.74,7.69c.99874.754421,2.200132,1.19319,3.45,1.26l5.47,9.83c2.409108.270311,4.840892.270311,7.25,0c10.422478-1.130097,19.638188-7.273903,24.69-16.46Z"
      fill="#263238" />
    <path
      d="M201.42,122.7c-1.289842.001485-2.57868-.071972-3.86-.22h-.25l-5.46-9.82c-1.248418-.126109-2.439988-.585468-3.45-1.33-2.12-1.57-4.49-6.36-4.92-8-.216071-1.205306.487241-2.386018,1.65-2.77l-1.74-3.12c-4.757118-8.880639-1.510927-19.935382,7.292436-24.834028s19.908646-1.829803,24.947564,6.894028l1.74,3.11c.910399-.66824,2.165842-.601283,3,.16c1.14,1.21,4,5.75,4.17,8.38.0998,1.169762-.096212,2.345837-.57,3.42l6.11,11-.13.25c-5.143316,9.318804-14.499188,15.552322-25.08,16.71-1.146016.119845-2.297754.176597-3.45.17Zm-3.49-1.19c12.627401,1.390262,24.860786-4.911545,31.06-16l-6.1-11l.12-.24c.477112-.966869.681118-2.045677.59-3.12-.19-2.29-2.84-6.64-3.91-7.78-.79-.85-2.12.21-2.18.26l-.46.37-2.29-4c-4.69442-8.419581-15.325419-11.43942-23.745-6.745s-11.43942,15.325419-6.745,23.745l4.14,7.45-.86.5-2.1-3.39c-.47.25-1.22.76-1,1.56.41,1.51,2.71,6.06,4.56,7.42.921661.693188,2.028483,1.096934,3.18,1.16h.28Z"
      fill="#263238" />
    <path
      d="M215,85.59c-3.647299-6.541772-11.905014-8.891528-18.45-5.25L194.1,81.7c-6.541772,3.647299-8.891528,11.905014-5.25,18.45l12.27,22c1.239054.009154,2.477652-.05094,3.71-.18c9.232798-1.001468,17.578524-5.954919,22.88-13.58Z"
      fill="#fff" />
    <path
      d="M201.42,122.7h-.55l-12.42-22.31c-3.768852-6.788592-1.330655-15.346887,5.45-19.13l2.45-1.36c6.785612-3.767984,15.340831-1.329389,19.12,5.45l12.87,23.12-.18.26c-5.39362,7.733449-13.867045,12.757708-23.24,13.78-1.162204.128639-2.330701.192072-3.5.19Zm1.75-43.57c-2.215268-.001595-4.394197.56293-6.33,1.64l-2.45,1.37c-6.299611,3.50799-8.568263,11.454982-5.07,17.76l12.14,21.8c1.119094.000414,2.237393-.059674,3.35-.18c8.979445-.980471,17.11211-5.750906,22.35-13.11L214.6,85.84c-2.309276-4.145881-6.684363-6.714283-11.43-6.71Z"
      fill="#263238" />
    <path d="M200,99c.46.83.43,1.73-.07,2s-1.28-.16-1.74-1-.43-1.73.07-2s1.23.12,1.74,1Z" fill="#263238" />
    <path d="M210.12,93.29c.46.83.43,1.73-.07,2s-1.28-.17-1.75-1-.42-1.72.08-2s1.28.18,1.74,1Z" fill="#263238" />
    <polygon points="205.81,103.78 205.39,102.87 209.56,100.95 204.74,94.95 205.52,94.32 211.14,101.33 205.81,103.78"
      fill="#263238" />
    <path
      d="M212.88,106.5c.338526.604041.27936,1.352613-.149855,1.895972s-1.143745.774242-1.809754.584774-1.152015-.761882-1.230952-1.449802.26478-1.355542.870561-1.690944c.823206-.455783,1.859972-.160841,2.32.66Z"
      fill="#263238" />
    <path d="M193.36,97.9l-1-.23c0,0,.9-3.54,5.42-3.84l.06,1c-3.76.25-4.47,3.04-4.48,3.07Z" fill="#263238" />
    <path d="M204.88,90.61l-.95-.32c0,0,1.3-3.78,6.13-2.73l-.21,1c-3.93-.88-4.93,1.93-4.97,2.05Z" fill="#263238" />
    <path
      d="M211.92,118.42c-1.578831-.040425-3.146939-.272115-4.67-.69l.27-1c1.887401.533502,3.857221.713193,5.81.53c1.981445-.340763,3.789398-1.341657,5.13-2.84.889343-1.581908,1.597163-3.259206,2.11-5l1,.31c-.06.16-1.3,4-2.28,5.27-1.48489,1.701172-3.513205,2.835474-5.74,3.21-.534906.124542-1.080995.194897-1.63.21Z"
      fill="#263238" />
    <path
      d="M177.72,108.62c-1.520905-13.6529,5.798207-26.764433,18.217765-32.635497s27.197072-3.205208,36.782235,6.635497c-3.107796-13.247486-14.214253-23.106888-27.736734-24.622399s-26.535936,5.640691-32.499177,17.871555-3.586359,26.890729,5.935911,36.610844c-.309488-1.271686-.543232-2.560619-.7-3.86Z"
      fill="#fff" />
    <path
      d="M179.3,114.15l-1.3-1.27c-9.649104-9.871024-12.05051-24.742452-5.998712-37.148824s19.24986-19.668417,32.968754-18.140587s24.9959,11.515585,28.169958,24.949411l.41,1.75L232.34,83c-9.435473-9.658556-23.9582-12.270138-36.167472-6.503896s-19.41795,18.641214-17.952528,32.063896v0c.142557,1.292788.366333,2.575323.67,3.84Zm22.11-55.79c-1.149182.003754-2.297394.067173-3.44.19-17.377431,1.912109-29.929102,17.52789-28.06,34.91.680912,6.452947,3.346743,12.535794,7.63,17.41-.13-.74-.24-1.47-.31-2.2v0c-1.468163-13.511767,5.584959-26.520468,17.709193-32.662643s26.785044-4.133818,36.810807,5.042643c-3.981348-13.441584-16.321195-22.670032-30.34-22.69Z"
      fill="#263238" />
    <ellipse rx="14.48" ry="16.36" transform="matrix(.994151-.107999 0.107999 0.994151 252.703328 111.307599)"
      fill="#4AB9A4" />
    <path
      d="M253.07,128.15c-7.63,0-14.32-6.53-15.26-15.23-.518162-4.334806.566614-8.70948,3.05-12.3c2.274426-3.420005,5.950383-5.653139,10.033738-6.095471s8.152241.95184,11.106262,3.805471c6.528151,6.203746,7.603241,16.222395,2.54,23.67-2.556081,3.838456-6.858365,6.149011-11.47,6.16Zm-.72-32.69c-.45428-.001882-.908314.021488-1.36.07-3.77745.454186-7.173037,2.522175-9.31,5.67-2.349308,3.386761-3.374087,7.517901-2.88,11.61.94,8.7,8,15.1,15.62,14.27c3.776569-.456729,7.171182-2.524125,9.31-5.67c4.744853-7.046691,3.718384-16.487674-2.43-22.35-2.426063-2.280303-5.620682-3.56529-8.95-3.6Z"
      fill="#263238" />
    <path
      d="M286,98.37c-6.694789-1.522458-13.534486-2.31707-20.4-2.37-12.64-.3-20.07.92-22.47,7.21s-1.85,16.45,5.94,19.81c4.35,1.87,10.73.79,15.38-.27s16-5.81,19.62-11.52s3.65-10.23,1.93-12.86Z"
      fill="#fff" />
    <path
      d="M255,124.5c-2.083634.056417-4.157546-.303968-6.1-1.06-8.21-3.54-8.55-14.29-6.2-20.45c2.55-6.7,10.35-7.83,23-7.53c6.916414.075982,13.805142.887209,20.55,2.42l.18.06.11.16c2.06,3.2,1.35,8.07-2,13.36-3.74,6-15.61,10.74-19.93,11.73-3.145101.790351-6.368108,1.2297-9.61,1.31Zm7.19-28.08c-10.14,0-16.44,1.38-18.56,6.93-2.21,5.79-1.94,15.89,5.66,19.17c4.29,1.84,10.66.71,15.08-.3c4.2-1,15.72-5.58,19.31-11.3c3-4.77,3.76-9.28,2.07-12.12-6.61229-1.466532-13.357622-2.250639-20.13-2.34-1.22-.02-2.36-.04-3.46-.04Z"
      fill="#263238" />
    <path
      d="M299.27,108c0,0-4.18-7.53-12-9.63s-14.94,3-18.18,8-1.8,6.64-1.8,6.64s11.42-5.72,17.33-6.79s14.65,1.78,14.65,1.78Z"
      fill="#4AB9A4" />
    <path
      d="M267.19,113.63l-.25-.29c-.17-.2-1.59-2.1,1.76-7.24c3.53-5.43,10.91-10.31,18.73-8.21s12.1,9.55,12.28,9.86l.62,1.12-1.21-.4c-.09,0-8.67-2.78-14.38-1.75s-17.09,6.68-17.2,6.74Zm16.47-15.24c-6,0-11.32,4-14.12,8.25-2.15,3.29-2.14,5-2,5.69c2.25-1.1,11.7-5.65,17-6.6c4.66-.84,10.89.65,13.56,1.4-1.48-2.13-5.24-6.74-10.95-8.28-1.138135-.305678-2.311531-.460338-3.49-.46Z"
      fill="#263238" />
    <path
      d="M267,118.08c0,0-1.84-5.26,5.55-12.09s21-4.37,25.37.19s3.9,12.6.39,16.49c-1.909593,2.216227-4.305157,3.961567-7,5.1s-6.85-11.72-24.31-9.69Z"
      fill="#fff" />
    <path
      d="M291.11,128.38l-.21-.36c-.06-.11-6.94-11.41-23.81-9.44h-.4l-.14-.38c-.07-.23-1.85-5.66,5.69-12.62s21.28-4.75,26.07.2c4.64,4.79,4,13.16.41,17.17-1.965931,2.284908-4.438229,4.079207-7.22,5.24Zm-20.15-11c13.06,0,19.31,8,20.57,9.8c2.45893-1.140616,4.652452-2.782352,6.44-4.82c3.33-3.69,3.89-11.4-.37-15.8-4-4.15-17.21-7.08-24.68-.17-5.91,5.46-5.72,9.89-5.51,11.18c1.191947-.136622,2.39029-.210058,3.59-.22Z"
      fill="#263238" />
    <path d="M260.87,128.42c0,0,2.83-7.42,6.13-10.34s13.28-4.1,20.7-1.54s6.11,11.1,4.72,13.77-5.64,4.82-5.64,4.82Z"
      fill="#fff" />
    <path
      d="M286.87,135.66l-26.67-6.9.2-.52c.12-.31,2.91-7.6,6.3-10.53s13.42-4.33,21.19-1.65c2.467099.758063,4.45468,2.598416,5.4,5c1.110825,3.094228.967264,6.500222-.4,9.49-1.44,2.79-5.68,4.94-5.85,5Zm-25.33-7.58l25.21,6.52c.78-.42,4.11-2.31,5.26-4.52c1.217946-2.736131,1.343169-5.834505.35-8.66-.842071-2.12254-2.605246-3.745839-4.79-4.41-7.35-2.53-17.07-1.27-20.22,1.45-2.69,2.34-5.1,7.89-5.81,9.62Z"
      fill="#263238" />
    <path
      d="M261.71,127.21c-1.154855.331293-2.194009.979033-3,1.87-1.389845,1.646663-3.088412,3.005517-5,4-3,1.73-6.25,1.8-5.06,5s5.63,2.75,7.81,2.23s3.08-1.32,4.76-2.62s2.95-10.26,3-10.7-2.51.22-2.51.22Z"
      fill="#fff" />
    <path
      d="M253.4,141.26c-2.05,0-4.39-.57-5.25-2.93-1.06-2.85.93-3.69,3-4.58.767359-.307838,1.515392-.661818,2.24-1.06c1.639581-.828033,3.105866-1.961689,4.32-3.34l.6-.62c.879232-.962125,2.012984-1.655552,3.27-2c2.48-.54,2.79-.23,2.94-.08l.19.19v.35c0,0,0,.19-.07.42-1,6.25-2.05,9.71-3.15,10.57l-.38.29c-1.296535,1.176792-2.867981,2.008936-4.57,2.42-1.029558.240249-2.082798.364357-3.14.37Zm8.41-13.56c-1.060797.308321-2.015882.903519-2.76,1.72l-.58.62c-1.288022,1.442377-2.830345,2.635558-4.55,3.52-.76192.413732-1.546491.784317-2.35,1.11-2.28,1-3.18,1.43-2.49,3.31c1.15,3.1,5.82,2.26,7.23,1.92c1.563798-.374346,3.006053-1.141943,4.19-2.23l.37-.29c.41-.32,1.48-1.91,2.78-9.94v0c-.618808.057988-1.233354.154846-1.84.29Z"
      fill="#263238" />
    <path
      d="M269.66,124.24c0,0-4.46-1-6.65.72s-2,8.63-1.83,12.81s1.66,7.53,3.26,8c1.279967.509427,2.729119.352155,3.87-.42.64-.63,0-6.72.42-11.67s.93-9.44.93-9.44Z"
      fill="#fff" />
    <path
      d="M266.11,146.59c-.621559.001503-1.239359-.096399-1.83-.29-1.91-.63-3.42-4.21-3.6-8.51-.24-5.81-.16-11.44,2-13.21c2.35-1.92,6.88-.87,7.07-.82l.43.1-.05.44c0,0-.49,4.58-.93,9.47-.2,2.32-.16,4.93-.13,7c0,3.37,0,4.5-.42,4.95-.708362.596933-1.614411.907273-2.54.87Zm.66-22.16c-1.216443-.078-2.42489.245189-3.44.92-2.1,1.7-1.78,9.2-1.65,12.4.17,4.16,1.65,7.18,2.91,7.6c1.107652.437976,2.357131.326746,3.37-.3.175427-1.402839.218951-2.819036.13-4.23c0-2.12-.07-4.77.14-7.13.36-4,.75-7.77.88-9-.771871-.148585-1.554339-.235526-2.34-.26Z"
      fill="#263238" />
    <path
      d="M269.66,124.24c-1.249461,3.154976-2.115658,6.44854-2.58,9.81-.58,5,2.11,11.68,3.15,12.26s4,.41,4.65-1.06.18-6.49.26-9.43s1.49-9.25,1.28-11.19-4.57-2.17-6.76-.39Z"
      fill="#fff" />
    <path
      d="M271.8,147.13c-.625317.023093-1.246768-.107377-1.81-.38-1.37-.77-4-7.91-3.41-12.76.470826-3.405494,1.347042-6.7425,2.61-9.94l.05-.12.1-.08c1.753697-1.314143,4.039221-1.687594,6.12-1c.765139.23895,1.330078.889017,1.46,1.68-.023314,1.964591-.227509,3.922861-.61,5.85-.315632,1.794056-.539258,3.603088-.67,5.42c0,.93,0,2.07.05,3.28.08,2.69.15,5.23-.35,6.34-.378074.697634-1.030767,1.205285-1.8,1.4-.560355.193172-1.14741.297762-1.74.31Zm-1.73-22.58c-1.198714,3.079067-2.034356,6.287393-2.49,9.56-.58,5,2.16,11.34,2.9,11.77.888902.319064,1.861098.319064,2.75,0c.500802-.116646.933418-.430292,1.2-.87.41-.89.33-3.55.26-5.89c0-1.22-.07-2.38-.05-3.34.127054-1.857534.354049-3.706879.68-5.54.360718-1.84278.56478-3.712791.61-5.59-.05-.45-.49-.72-.85-.87-1.699599-.526799-3.547036-.242862-5.01.77Z"
      fill="#263238" />
    <path
      d="M276.42,124.63c0,0,2.67-1.27,4.6-.22s2.39,3.94,2.13,5.37-1.17,9.93-1.79,12-2.19,3-3.46,2.9-2.15-1.73-2.35-3.53-.41-5.29-.41-5.29Z"
      fill="#fff" />
    <path
      d="M278.13,145.15h-.29c-1.65-.18-2.58-2.13-2.78-4s-.42-5.28-.42-5.32L276,124.3l.25-.12c.12-.06,2.92-1.37,5.05-.21s2.65,4.44,2.38,5.9c-.08.45-.24,1.7-.42,3.14-.309985,2.981374-.770574,5.945161-1.38,8.88-.395415,1.794077-1.918359,3.118023-3.75,3.26Zm-2.49-9.27c0,0,.22,3.43.41,5.18s1,3,1.9,3.08s2.38-.74,2.94-2.54c.4-1.33,1-5.77,1.33-8.71.2-1.52.35-2.72.44-3.2.21-1.17-.12-3.89-1.88-4.84-1.36-.74-3.23-.14-3.89.13l-1.25,10.9Z"
      fill="#263238" />
    <path
      d="M283.14,127.12c1.604067.360906,3.163478.897478,4.65,1.6c1.06.72,1.46,3.06.73,6.64s-1.77,5.66-3.43,5.84-3-1.92-3-3.18s1.36-8.02,1.05-10.9Z"
      fill="#fff" />
    <path
      d="M284.88,141.71c-.703065-.020557-1.373281-.30219-1.88-.79-.832091-.745494-1.34137-1.78557-1.42-2.9c0-.45.15-1.43.35-2.79.36-2.46.92-6.17.71-8l-.08-.71.7.17c1.664887.367096,3.282137.924075,4.82,1.66c1.33.92,1.67,3.53.93,7.16-.84,4.11-2,6-3.87,6.24Zm-1.2-13.93c-.064646,2.548667-.31868,5.089001-.76,7.6-.18,1.21-.34,2.26-.34,2.64.076289.829322.466136,1.598286,1.09,2.15.358846.359727.85237.552056,1.36.53c1.3-.14,2.28-1.92,3-5.44.76-3.74.2-5.64-.52-6.13-1.218878-.599662-2.504503-1.05282-3.83-1.35Z"
      fill="#263238" />
    <path d="M235.68,129.83c2.25,3.63,1.45,8.2-1.78,10.2s-7.68.68-9.93-3-1.46-8.2,1.78-10.2s7.67-.64,9.93,3Z"
      fill="#4AB9A4" />
    <path
      d="M230.59,141.46c-2.901095-.073259-5.562182-1.62839-7.05-4.12-1.138929-1.804665-1.576553-3.964323-1.23-6.07.312005-1.991303,1.467232-3.751475,3.17-4.83c3.47-2.14,8.23-.74,10.62,3.12c1.137171,1.805443,1.577967,3.96321,1.24,6.07-.314354,1.993064-1.473432,3.75355-3.18,4.83-1.073124.660501-2.309918,1.006942-3.57,1Zm-1.53-15c-1.076036-.006609-2.132482.28781-3.05.85-1.462992.92607-2.454601,2.439002-2.72,4.15-.301501,1.865563.093571,3.776858,1.11,5.37c2.1,3.4,6.24,4.65,9.23,2.8c1.462992-.92607,2.454601-2.439002,2.72-4.15.303504-1.864312-.08792-3.775175-1.1-5.37v0c-1.29514-2.206195-3.632924-3.592248-6.19-3.67Z"
      fill="#263238" />
    <path d="M218,142.07c1.58,2.55,1,5.75-1.24,7.15s-5.38.48-7-2.07-1-5.75,1.24-7.16s5.38-.47,7,2.08Z" fill="#263238" />
    <path d="M232.46,148.16c1.58,2.55,1,5.75-1.24,7.15s-5.38.48-7-2.07-1-5.75,1.24-7.16s5.43-.47,7,2.08Z"
      fill="#ababab" />
    <path
      d="M228.89,156.47c-.524893-.003645-1.046666-.081069-1.55-.23-3.010727-.958392-4.874043-3.96771-4.39-7.09.224776-1.436812,1.063981-2.704563,2.29883-3.472743s2.742964-.960659,4.13117-.527257c1.466709.451441,2.716065,1.426721,3.51,2.74v0c1.72,2.78,1.09,6.29-1.41,7.84-.777686.482798-1.674638.73907-2.59.74Zm-1.06-10.54c-.727903-.006892-1.442621.19434-2.06.58-.995935.621308-1.668691,1.648723-1.84,2.81-.418798,2.636482,1.148128,5.18433,3.69,6c1.114223.357126,2.328449.21492,3.33-.39c2-1.26,2.52-4.16,1.09-6.47v0c-.665156-1.100936-1.711335-1.919376-2.94-2.3-.409541-.139392-.837585-.216911-1.27-.23Z"
      fill="#263238" />

    <animateTransform attributeName="transform" begin="0s" dur="10s" type="translate"
      values="0,-50; 90,-50; 0,-50; -60,-50; 0,-50" repeatCount="indefinite" />
  </g>
</svg>